<svg xmlns:xlink="http://www.w3.org/1999/xlink" height="300" width="300" fill="#d78aff"
  xmlns="http://www.w3.org/2000/svg" viewBox="0 0 32 32" x="0px" y="0px">
  <title> upload, up, folder, data,file, folder,</title>
  <g data-name="Layer 20">
    <path
      d="M27,9H17.24a1,1,0,0,1-.9-.55l-.89-1.79A2.75,2.75,0,0,0,15,6a3,3,0,0,0-2.24-1H5A3,3,0,0,0,2,8V24a3,3,0,0,0,3,3H27a3,3,0,0,0,3-3V12A3,3,0,0,0,27,9Zm-7.29,8.71a1,1,0,0,1-1.42,0L17,16.41V22a1,1,0,0,1-2,0V16.41l-1.29,1.3a1,1,0,0,1-1.42-1.42l3-3a1,1,0,0,1,1.42,0l3,3A1,1,0,0,1,19.71,17.71ZM30,9v.36A4,4,0,0,0,27,8H17.24l-.9-1.79A2.25,2.25,0,0,0,16.22,6H27A3,3,0,0,1,30,9Z">
    </path>
  </g>
</svg>