<svg width="800" height="578" viewBox="0 0 800 578" fill="none" xmlns="http://www.w3.org/2000/svg">
<g clip-path="url(#clip0)">
<path d="M701.789 281.377H694.668V562.668H701.789V281.377Z" fill="#3F3D56"/>
<path d="M767.511 317.224C767.964 415.584 698.762 495.642 698.762 495.642C698.762 495.642 628.826 416.225 628.373 317.865C627.919 219.505 697.121 139.447 697.121 139.447C697.121 139.447 767.057 218.863 767.511 317.224Z" fill="#A0616A"/>
<path d="M559.401 413.73H555.738V558.403H559.401V413.73Z" fill="#3F3D56"/>
<path d="M593.203 432.166C593.436 482.755 557.844 523.931 557.844 523.931C557.844 523.931 521.874 483.085 521.641 432.496C521.407 381.907 556.999 340.731 556.999 340.731C556.999 340.731 592.969 381.577 593.203 432.166Z" fill="#A0616A"/>
<path d="M631.593 577.666C686.398 577.666 730.827 570.856 730.827 562.455C730.827 554.055 686.398 547.244 631.593 547.244C576.788 547.244 532.36 554.055 532.36 562.455C532.36 570.856 576.788 577.666 631.593 577.666Z" fill="#00C9D0"/>
<path d="M639.778 207.942C631.37 193.737 614.737 193.075 614.737 193.075C614.737 193.075 598.529 191.002 588.132 212.637C578.441 232.803 565.066 252.274 585.979 256.995L589.756 245.238L592.096 257.87C595.073 258.084 598.06 258.135 601.043 258.023C623.439 257.3 644.768 258.235 644.081 250.198C643.169 239.514 647.867 221.611 639.778 207.942Z" fill="#2F2E41"/>
<path d="M609.501 234.694C609.501 234.694 620.366 249.905 613.847 262.219C607.328 274.533 629.058 287.571 629.058 287.571L644.993 252.803C644.993 252.803 626.161 240.489 631.231 228.9L609.501 234.694Z" fill="#FBBEBE"/>
<path d="M616.744 241.213C627.145 241.213 635.577 232.782 635.577 222.381C635.577 211.98 627.145 203.548 616.744 203.548C606.344 203.548 597.912 211.98 597.912 222.381C597.912 232.782 606.344 241.213 616.744 241.213Z" fill="#FBBEBE"/>
<path d="M551.57 244.151L567.308 223.846C567.308 223.846 572.849 202.562 580.875 203.641C588.901 204.72 577.705 229.166 577.705 229.166L562.067 251.642L551.57 244.151Z" fill="#FBBEBE"/>
<path d="M631.231 514.288L636.302 541.087L647.167 543.984L644.269 512.115L631.231 514.288Z" fill="#FBBEBE"/>
<path d="M740.605 485.314L760.162 512.115L768.13 515.737L774.649 504.872L755.092 479.52L740.605 485.314Z" fill="#FBBEBE"/>
<path d="M626.885 275.982L614.803 260.076C614.803 260.076 591.393 264.392 589.22 266.565C587.047 268.738 595.015 308.577 595.015 308.577C595.015 308.577 596.463 319.442 602.982 325.236L609.501 329.582L663.102 318.717L665.117 294.868C665.851 286.181 664.762 277.437 661.921 269.195C659.079 260.954 654.547 253.397 648.615 247.008V247.008L639.289 248.283L626.885 275.982Z" fill="#575A89"/>
<path d="M592.117 268.014L588.496 266.565L571.836 265.117C571.836 265.117 566.041 263.668 567.49 260.771C568.939 257.873 570.387 257.149 567.49 256.425C564.593 255.7 563.868 254.976 564.593 252.803C565.317 250.63 569.663 246.284 569.663 246.284L557.349 236.143C557.349 236.143 556.683 236.615 555.606 237.487C549.492 242.437 530.147 260.296 544.311 278.155C560.971 299.16 580.528 311.474 596.463 307.128L592.117 268.014Z" fill="#575A89"/>
<path d="M608.052 325.961V336.101C608.052 336.101 601.533 348.415 603.706 360.004C605.879 371.594 606.604 377.388 606.604 377.388C606.84 387.245 608.549 397.011 611.674 406.362C616.744 420.848 600.085 515.736 621.09 517.184C642.096 518.633 653.685 520.082 660.204 512.838C666.723 505.595 649.339 381.01 649.339 381.01C649.339 381.01 708.734 504.871 721.047 499.8C733.361 494.73 764.507 483.141 760.886 476.622C757.264 470.103 665.999 325.236 665.999 325.236L663.101 318.717L608.052 325.961Z" fill="#A69077"/>
<path d="M642.82 536.017C642.82 536.017 631.231 535.293 631.231 538.914C631.231 542.536 625.436 554.85 625.436 554.85C625.436 554.85 621.09 569.336 632.68 567.887C644.269 566.439 651.512 553.401 651.512 553.401L648.615 539.639L642.82 536.017Z" fill="#E5E5E5"/>
<path d="M763.783 510.665C763.783 510.665 753.643 504.146 754.367 508.492C755.092 512.838 755.816 524.428 760.886 525.153C765.956 525.877 781.167 530.223 781.892 531.672C782.616 533.12 800 538.915 800 529.499C800 520.082 789.135 512.838 789.135 512.838L776.821 503.422C776.821 503.422 768.854 502.698 767.405 507.768C765.956 512.838 763.783 510.665 763.783 510.665Z" fill="#E5E5E5"/>
<path d="M616.773 205.173C623.415 205.173 628.8 199.789 628.8 193.147C628.8 186.504 623.415 181.12 616.773 181.12C610.131 181.12 604.746 186.504 604.746 193.147C604.746 199.789 610.131 205.173 616.773 205.173Z" fill="#2F2E41"/>
<path d="M603.481 189.982C603.481 187.011 604.58 184.146 606.567 181.938C608.554 179.73 611.287 178.335 614.241 178.023C613.821 177.978 613.398 177.955 612.975 177.955C609.786 177.955 606.727 179.222 604.471 181.477C602.216 183.733 600.949 186.792 600.949 189.982C600.949 193.171 602.216 196.23 604.471 198.486C606.727 200.741 609.786 202.008 612.975 202.008C613.398 202.008 613.821 201.985 614.241 201.941C611.287 201.628 608.554 200.233 606.567 198.025C604.58 195.817 603.481 192.952 603.481 189.982V189.982Z" fill="#2F2E41"/>
<path d="M636.06 206.573L619.628 197.965L596.935 201.487L592.24 222.223L603.928 221.773L607.193 214.156V221.648L612.586 221.441L615.715 209.312L617.672 222.223L636.843 221.832L636.06 206.573Z" fill="#2F2E41"/>
<path d="M635.077 327.639L609.734 328.324C609.734 328.324 588.11 332.532 589.323 323.804C590.537 315.076 611.633 318.128 611.633 318.128L634.724 314.606L635.077 327.639Z" fill="#FBBEBE"/>
<path d="M655.128 245.781C656.401 245.588 657.702 245.856 658.796 246.537C659.889 247.218 660.704 248.267 661.093 249.495C666.054 265.129 681.339 317.447 666.153 324.625C648.266 333.079 635.214 332.707 635.214 332.707L628.227 315.506L634.587 309.537L641.377 265.878L644.631 247.371L655.128 245.781Z" fill="#575A89"/>
<path opacity="0.4" d="M650.426 274.895L647.529 303.869L622.177 314.734L650.426 308.215V274.895Z" fill="black"/>
<path d="M513.705 179.245C521.871 181.409 528.935 186.541 533.518 193.638L535.887 197.307L536.006 197.459L577.572 209.621C578.334 209.844 578.978 210.357 579.365 211.05C579.753 211.743 579.853 212.56 579.644 213.326L576.417 225.158C576.312 225.544 576.131 225.904 575.886 226.22C575.641 226.535 575.336 226.799 574.989 226.996C574.641 227.193 574.258 227.32 573.862 227.368C573.465 227.417 573.063 227.386 572.678 227.279L531.102 215.658L531.101 215.659L526.926 217.238C519.237 220.145 510.803 220.431 502.934 218.053V218.053L513.705 179.245Z" fill="#6D28D9"/>
<path d="M557.479 213.559C557.872 212.214 556.146 210.525 553.624 209.787C551.101 209.049 548.737 209.541 548.343 210.886C547.95 212.232 549.675 213.921 552.198 214.659C554.721 215.397 557.085 214.905 557.479 213.559Z" fill="#575A89"/>
<path d="M555.356 214.8C556.319 214.8 557.101 214.019 557.101 213.055C557.101 212.091 556.319 211.31 555.356 211.31C554.392 211.31 553.611 212.091 553.611 213.055C553.611 214.019 554.392 214.8 555.356 214.8Z" fill="#3F3D56"/>
<path d="M517.18 201.657C520.646 190.967 519.538 181.031 514.704 179.464C509.87 177.897 503.142 185.291 499.675 195.98C496.209 206.67 497.318 216.606 502.152 218.173C506.986 219.741 513.714 212.346 517.18 201.657Z" fill="#6D28D9"/>
<path opacity="0.4" d="M515.888 201.279C519.228 190.979 518.32 181.38 513.925 179.292C514.189 179.325 514.45 179.382 514.704 179.464C519.538 181.031 520.646 190.967 517.18 201.657C513.714 212.346 506.986 219.741 502.152 218.173C501.977 218.116 501.805 218.047 501.639 217.968C506.394 218.573 512.605 211.405 515.888 201.279Z" fill="black"/>
<path d="M514.252 179.283L419.917 106.107C403.235 93.0741 387.227 79.2008 371.955 64.5412C345.064 38.9087 308.559 18.4151 266.057 7.50411C162.796 -19.0048 80.9916 27.9987 43.7848 97.0159C-13.0712 202.482 -56.6438 373.624 195.455 282.525C250.589 262.602 306.397 260.484 348.713 249.989L501.938 218.397L514.252 179.283Z" fill="#00C9D0"/>
<path d="M231.039 56.1467C233.839 56.1467 236.109 53.8767 236.109 51.0764C236.109 48.2761 233.839 46.006 231.039 46.006C228.238 46.006 225.968 48.2761 225.968 51.0764C225.968 53.8767 228.238 56.1467 231.039 56.1467Z" fill="#F2F2F2"/>
<path d="M329.533 62.796H328.214V61.4763H327.956V62.796H326.636V63.0538H327.956V64.3736H328.214V63.0538H329.533V62.796Z" fill="#F2F2F2"/>
<path d="M462.086 172.895H460.766V171.575H460.508V172.895H459.188V173.153H460.508V174.472H460.766V173.153H462.086V172.895Z" fill="#F2F2F2"/>
<path d="M452.669 206.938H451.35V205.619H451.092V206.938H449.772V207.196H451.092V208.516H451.35V207.196H452.669V206.938Z" fill="#F2F2F2"/>
<path d="M47.7689 235.912H46.4491V234.592H46.1913V235.912H44.8716V236.17H46.1913V237.489H46.4491V236.17H47.7689V235.912Z" fill="#F2F2F2"/>
<path d="M105.715 78.007H104.396V76.6873H104.138V78.007H102.818V78.2649H104.138V79.5846H104.396V78.2649H105.715V78.007Z" fill="#F2F2F2"/>
<path d="M330.982 212.733H329.662V211.413H329.404V212.733H328.085V212.991H329.404V214.31H329.662V212.991H330.982V212.733Z" fill="#F2F2F2"/>
<path d="M192.635 31.6497H191.315V30.33H191.057V31.6497H189.737V31.9076H191.057V33.2273H191.315V31.9076H192.635V31.6497Z" fill="#F2F2F2"/>
<path d="M193.142 135.938L191.498 136.191C192.012 139.48 192.418 142.841 192.715 146.165L194.374 146.02C194.077 142.652 193.664 139.262 193.142 135.938Z" fill="#E6E6E6"/>
<path d="M188.644 116.134L187.051 116.62C188.014 119.807 188.876 123.074 189.607 126.326L191.237 125.956C190.491 122.668 189.615 119.365 188.644 116.134Z" fill="#E6E6E6"/>
<path d="M181.466 97.1425L179.952 97.8379C181.343 100.873 182.647 103.987 183.827 107.102L185.385 106.515C184.189 103.364 182.878 100.206 181.466 97.1425Z" fill="#E6E6E6"/>
<path d="M171.76 79.3383L170.355 80.2292C172.144 83.0396 173.86 85.9515 175.454 88.8706L176.917 88.0738C175.309 85.1186 173.571 82.1777 171.76 79.3383Z" fill="#E6E6E6"/>
<path d="M159.693 63.0192L158.425 64.0984C160.583 66.6336 162.684 69.2846 164.669 71.9647L166.001 70.9723C164.002 68.2633 161.88 65.5833 159.693 63.0192Z" fill="#E6E6E6"/>
<path d="M145.51 48.489L144.402 49.7276C146.894 51.9513 149.335 54.2909 151.66 56.674L152.855 55.5078C150.501 53.0958 148.031 50.7344 145.51 48.489Z" fill="#E6E6E6"/>
<path d="M129.488 36.016L128.554 37.3922C131.321 39.2537 134.059 41.2384 136.688 43.2883L137.716 41.9772C135.051 39.9056 132.284 37.8993 129.488 36.016Z" fill="#E6E6E6"/>
<path d="M114.907 27.353V29.2362C116.638 30.1417 118.355 31.0906 120.035 32.0612L120.868 30.6197C118.913 29.4897 116.926 28.4008 114.907 27.353Z" fill="#E6E6E6"/>
<path d="M193.254 156.44L194.919 156.41C194.95 158.091 194.952 159.782 194.926 161.434L193.261 161.408C193.286 159.774 193.284 158.103 193.254 156.44Z" fill="#E6E6E6"/>
<path d="M95.3576 278.632L93.7133 278.885C94.2276 282.174 94.6332 285.534 94.9302 288.859L96.5889 288.714C96.2919 285.346 95.8791 281.956 95.3576 278.632Z" fill="#E6E6E6"/>
<path d="M90.8594 258.828L89.2659 259.313C90.2293 262.501 91.0912 265.767 91.8228 269.02L93.4526 268.65C92.7065 265.362 91.8301 262.059 90.8594 258.828Z" fill="#E6E6E6"/>
<path d="M83.6814 239.836L82.1675 240.532C83.5582 243.567 84.862 246.681 86.0427 249.796L87.6 249.209C86.4048 246.058 85.0938 242.9 83.6814 239.836Z" fill="#E6E6E6"/>
<path d="M73.9753 222.032L72.5701 222.923C74.3592 225.733 76.0758 228.645 77.6694 231.565L79.1325 230.768C77.5245 227.812 75.7861 224.871 73.9753 222.032Z" fill="#E6E6E6"/>
<path d="M61.908 205.713L60.6404 206.792C62.7989 209.327 64.8995 211.978 66.8841 214.658L68.2169 213.666C66.2177 210.957 64.0954 208.277 61.908 205.713Z" fill="#E6E6E6"/>
<path d="M47.7256 191.183L46.6173 192.421C49.109 194.645 51.55 196.985 53.8751 199.368L55.0702 198.202C52.7162 195.789 50.2462 193.428 47.7256 191.183Z" fill="#E6E6E6"/>
<path d="M31.7034 178.71L30.769 180.086C33.5359 181.947 36.2739 183.932 38.9032 185.982L39.9318 184.671C37.2662 182.599 34.4993 180.593 31.7034 178.71Z" fill="#E6E6E6"/>
<path d="M17.1226 170.047V171.93C18.8538 172.835 20.5704 173.784 22.2509 174.755L23.0839 173.313C21.1281 172.183 19.1411 171.094 17.1226 170.047Z" fill="#E6E6E6"/>
<path d="M95.4698 299.134L97.1348 299.104C97.1653 300.785 97.1676 302.475 97.1416 304.128L95.4767 304.102C95.502 302.468 95.4999 300.797 95.4698 299.134Z" fill="#E6E6E6"/>
<path d="M429.998 206.923L428.354 207.176C428.868 210.464 429.274 213.825 429.571 217.15L431.229 217.005C430.932 213.637 430.52 210.247 429.998 206.923Z" fill="#E6E6E6"/>
<path d="M425.5 187.119L423.906 187.604C424.87 190.791 425.732 194.058 426.463 197.31L428.093 196.941C427.347 193.652 426.471 190.35 425.5 187.119Z" fill="#E6E6E6"/>
<path d="M418.322 168.127L416.808 168.822C418.199 171.857 419.503 174.972 420.683 178.087L422.241 177.5C421.045 174.349 419.734 171.191 418.322 168.127Z" fill="#E6E6E6"/>
<path d="M408.616 150.323L407.211 151.214C409 154.024 410.716 156.936 412.31 159.855L413.773 159.058C412.165 156.103 410.427 153.162 408.616 150.323Z" fill="#E6E6E6"/>
<path d="M396.549 134.004L395.281 135.083C397.44 137.618 399.54 140.269 401.525 142.949L402.857 141.957C400.858 139.248 398.736 136.568 396.549 134.004Z" fill="#E6E6E6"/>
<path d="M382.366 119.474L381.258 120.712C383.75 122.936 386.191 125.276 388.516 127.659L389.711 126.492C387.357 124.08 384.887 121.719 382.366 119.474Z" fill="#E6E6E6"/>
<path d="M366.344 107.001L365.41 108.377C368.177 110.238 370.915 112.223 373.544 114.273L374.572 112.962C371.907 110.89 369.14 108.884 366.344 107.001Z" fill="#E6E6E6"/>
<path d="M351.763 98.3378V100.221C353.494 101.126 355.211 102.075 356.891 103.046L357.724 101.604C355.769 100.474 353.782 99.3856 351.763 98.3378Z" fill="#E6E6E6"/>
<path d="M430.11 227.425L431.775 227.395C431.806 229.076 431.808 230.766 431.782 232.419L430.117 232.393C430.143 230.759 430.14 229.088 430.11 227.425Z" fill="#E6E6E6"/>
<path d="M108.139 144.791H106.911V143.562H106.671V144.791H105.443V145.03H106.671V146.258H106.911V145.03H108.139V144.791Z" fill="#F2F2F2"/>
<path d="M93.9847 218.931H92.757V217.702H92.5172V218.931H91.2888V219.171H92.5172V220.399H92.757V219.171H93.9847V218.931Z" fill="#F2F2F2"/>
<path d="M52.4538 283.909H51.2254V282.681H50.9856V283.909H49.7579V284.149H50.9856V285.377H51.2254V284.149H52.4538V283.909Z" fill="#F2F2F2"/>
<path d="M167.986 201.497C156.111 183.846 150.956 162.525 153.453 141.399C155.951 120.273 165.937 100.741 181.6 86.3464C197.263 71.9514 217.566 63.6461 238.827 62.9365C260.088 62.2269 280.899 69.1601 297.487 82.4787C314.075 95.7974 325.341 114.62 329.242 135.532C333.142 156.444 329.419 178.062 318.749 196.465C308.078 214.868 291.165 228.838 271.078 235.841C250.99 242.844 229.058 242.417 209.259 234.636C207.976 239.218 205.576 243.41 202.275 246.836C198.974 250.263 194.875 252.818 190.345 254.272C185.814 255.726 180.994 256.034 176.316 255.168C171.637 254.302 167.246 252.29 163.536 249.311C159.826 246.332 156.913 242.48 155.057 238.099C153.2 233.718 152.46 228.945 152.901 224.207C153.341 219.47 154.95 214.915 157.583 210.952C160.215 206.989 163.79 203.74 167.986 201.497V201.497Z" fill="#3F3D56"/>
<path d="M241.295 100.999C261.688 100.999 275.718 112.31 275.718 128.57C275.718 139.338 270.497 146.788 260.437 152.715C250.975 158.208 247.766 162.232 247.766 169.193C247.766 169.757 247.655 170.316 247.439 170.837C247.223 171.358 246.907 171.832 246.508 172.23C246.109 172.629 245.635 172.946 245.114 173.162C244.593 173.378 244.034 173.489 243.47 173.489H233.045C231.931 173.489 230.861 173.056 230.06 172.283C229.259 171.509 228.79 170.455 228.751 169.342L228.733 168.812C227.808 157.609 231.724 150.649 241.567 144.884C250.757 139.392 254.618 135.912 254.618 129.168C254.618 122.425 248.092 117.476 239.99 117.476C233.831 117.476 228.957 120.474 226.722 125.368C225.936 127.025 224.692 128.422 223.137 129.394C221.583 130.367 219.782 130.873 217.948 130.854V130.854C210.885 130.854 206.218 123.342 209.522 117.099C214.748 107.222 225.773 100.999 241.295 100.999ZM226.993 194.208C226.993 187.954 232.213 183.005 238.63 183.005C245.101 183.005 250.322 187.9 250.322 194.208C250.322 200.516 245.101 205.41 238.63 205.41C232.159 205.41 226.993 200.516 226.993 194.208V194.208Z" fill="#00C9D0"/>
</g>
<defs>
<clipPath id="clip0">
<rect width="800" height="577.666" fill="white"/>
</clipPath>
</defs>
</svg>
