<svg width="800" height="673" viewBox="0 0 800 673" fill="none" xmlns="http://www.w3.org/2000/svg">
<path opacity="0.5" d="M741.532 238.946C742.31 237.838 742.739 236.524 742.764 235.171C742.764 226.975 726.052 220.343 705.436 220.343C684.82 220.343 668.108 226.975 668.108 235.171C668.145 236.704 668.685 238.181 669.645 239.377C646.691 241.938 631.229 246.737 631.229 252.247C631.229 260.433 665.409 267.075 707.685 267.075C749.96 267.075 784.141 260.433 784.141 252.247C784.095 246.45 766.718 241.372 741.532 238.946Z" fill="#00C9D0"/>
<path d="M539.017 216.352C525.854 151.536 469.438 102.703 400.804 102.703C346.269 102.703 299.257 133.701 275.746 178.775C219.331 184.411 175.143 232.318 175.143 290.59C175.143 352.583 225.908 403.321 287.974 403.321H532.44C584.149 403.321 626.465 361.042 626.465 309.378C626.565 285.639 617.554 262.765 601.288 245.461C585.022 228.157 562.736 217.74 539.017 216.352ZM430.883 271.755V343.152H370.707V271.755H306.769L400.795 177.858L494.821 271.801L430.883 271.755Z" fill="#00C9D0"/>
<path d="M305.661 253.946C304.771 248.86 305.207 243.382 302.872 238.803C302.645 238.263 302.279 237.792 301.81 237.44C301.228 237.126 300.572 236.975 299.911 237.004C297.798 236.924 295.695 236.897 293.581 236.95C292.993 236.95 292.297 237.039 291.995 237.555C291.959 237.611 291.931 237.671 291.915 237.734C289.499 235.062 287.671 231.686 285.067 229.192C285.442 229.067 285.807 228.951 286.191 228.853C286.191 228.595 286.102 228.354 286.048 228.105C286.048 228.025 286.003 227.954 285.985 227.883C285.968 227.811 285.905 227.543 285.852 227.374C285.798 227.205 285.798 227.205 285.763 227.125C285.717 226.965 285.664 226.808 285.602 226.653C285.602 226.573 285.539 226.493 285.504 226.412L285.317 225.941L285.21 225.717C285.139 225.557 285.067 225.397 284.987 225.246L284.88 225.05C284.8 224.881 284.711 224.711 284.621 224.542L284.532 224.382C284.434 224.204 284.328 224.026 284.23 223.838C284.204 223.81 284.182 223.776 284.167 223.74C284.051 223.535 283.926 223.331 283.802 223.135C282.785 221.478 281.661 219.848 280.833 218.146C279.38 215.154 278.898 211.778 277.926 208.589C276.954 205.4 275.252 202.157 272.363 200.634C270.963 199.922 269.091 199.289 268.958 197.713C268.953 197.206 269.06 196.704 269.269 196.243C269.67 195.221 270.157 194.235 270.722 193.295C270.937 192.956 271.159 192.618 271.382 192.279L271.56 192.038C271.739 191.789 271.926 191.54 272.113 191.309L272.345 191.014C272.532 190.783 272.729 190.569 272.925 190.346L273.166 190.088C273.442 189.794 273.718 189.509 274.012 189.197C274.283 188.989 274.497 188.716 274.637 188.404C274.713 188.095 274.728 187.775 274.681 187.46C274.538 184.912 275.875 182.534 277.355 180.486C278.835 178.436 280.583 176.495 281.43 174.099C281.528 173.822 281.608 173.547 281.679 173.262C281.706 173.171 281.726 173.079 281.741 172.985C281.787 172.798 281.822 172.611 281.858 172.416L281.911 172.094C281.911 171.916 281.956 171.738 281.974 171.569V171.221V170.696V170.348C281.974 170.179 281.974 170.001 281.974 169.823C281.974 169.645 281.974 169.601 281.974 169.484C281.974 169.369 281.974 169.111 281.929 168.924V168.621C281.929 168.407 281.867 168.184 281.84 167.971C281.84 167.899 281.84 167.828 281.84 167.757C281.798 167.466 281.745 167.169 281.679 166.866C281.255 164.974 280.707 163.111 280.039 161.289C279.684 160.171 279.23 159.086 278.684 158.048C279.014 157.985 279.352 157.914 279.682 157.825C279.421 157.416 279.18 156.993 278.961 156.56C281.013 153.54 282.552 150.202 283.516 146.681C284.027 144.166 284.326 141.612 284.408 139.048C284.898 131.333 285.397 123.584 284.756 115.888V115.585C284.996 113.933 285.014 112.254 284.809 110.598C284.602 107.355 283.644 104.205 282.009 101.395C280.279 98.6696 277.426 96.2652 274.253 95.9439C273.729 96.533 273.151 97.0696 272.523 97.5475C271.568 96.7092 270.867 95.62 270.5 94.4035C274.205 93.8225 277.618 92.0418 280.213 89.3348C282.808 86.6281 284.441 83.1451 284.862 79.4208C284.862 79.1447 284.925 78.8597 284.942 78.5836C284.942 78.4678 284.942 78.3519 284.942 78.2362C284.942 78.1204 284.942 77.9066 284.942 77.7463C284.942 77.5859 284.942 77.4523 284.942 77.3009V76.9357C284.942 76.7664 284.942 76.5883 284.942 76.419C284.942 76.2498 284.942 76.232 284.942 76.1429C284.942 76.0538 284.942 75.751 284.889 75.5639C284.893 75.4957 284.893 75.4273 284.889 75.359L284.809 74.7356V74.6019C284.809 74.3792 284.738 74.1565 284.693 73.9339V73.8626C284.649 73.622 284.594 73.3905 284.532 73.15C284.134 71.5287 283.5 69.9743 282.651 68.5359C283.349 66.9621 283.805 65.2926 284.006 63.5833C284.006 63.2715 284.069 62.9687 284.086 62.6926C284.104 62.4164 284.086 62.3006 284.086 62.1046C284.086 61.9087 284.086 61.9087 284.086 61.8196C284.086 61.5613 284.086 61.3029 284.086 61.0536C284.082 61.027 284.082 60.9999 284.086 60.9734C283.957 56.6927 282.246 52.6116 279.281 49.5184C279.622 48.9538 279.905 48.3571 280.128 47.7368C280.199 47.5498 280.262 47.3627 280.315 47.1668C280.369 46.9797 280.423 46.8016 280.467 46.6145V46.5699L280.574 46.0623C280.569 46.0327 280.569 46.0027 280.574 45.9732C280.574 45.7772 280.636 45.5723 280.663 45.3675C280.69 45.1626 280.663 44.9488 280.716 44.7439C280.716 44.6815 280.716 44.6103 280.716 44.548C280.716 44.4856 280.716 44.254 280.716 44.1115V43.8977C280.716 43.7552 280.716 43.6037 280.716 43.4612C280.716 43.3187 280.716 43.3365 280.716 43.2742C280.566 40.6279 279.423 38.1353 277.515 36.2935C275.608 34.4516 273.076 33.3956 270.424 33.336C267.771 33.2764 265.194 34.2176 263.205 35.9721C261.217 37.7265 259.964 40.1652 259.694 42.8021C259.566 43.8788 259.599 44.9686 259.793 46.0355C257.2 47.2986 254.967 49.1907 253.296 51.5388C251.624 53.887 250.569 56.6161 250.226 59.4769C250.113 60.4346 250.081 61.3999 250.128 62.363C248.59 64.7747 247.672 67.5283 247.454 70.3798C247.454 70.4867 247.454 70.5935 247.454 70.7004C247.454 71.0567 247.409 71.4219 247.409 71.7782C247.401 74.4164 247.997 77.0216 249.152 79.3944C250.306 81.7673 251.988 83.8451 254.069 85.4691C254.938 86.8727 256.085 88.085 257.439 89.0322C257.683 89.7575 257.865 90.5023 257.983 91.2587C258.082 92.2759 257.949 93.3019 257.594 94.2603C257.239 95.2187 256.67 96.0836 255.932 96.7902C255.549 97.1114 255.121 97.3784 254.719 97.681C254.315 97.5653 253.886 97.5653 253.48 97.681C248.88 99.1243 244.476 101.984 242.363 106.357C241.895 107.352 241.524 108.391 241.257 109.457L241.007 109.84C238.213 114.21 236.204 119.033 235.07 124.092C234.491 126.684 234.125 129.374 232.913 131.735C232.622 132.227 232.386 132.75 232.208 133.294C232.105 134.123 232.069 134.961 232.101 135.796C231.977 137.311 231.094 138.656 230.8 140.143C230.622 141.034 230.657 141.925 230.505 142.816C230.081 144.346 229.523 145.836 228.838 147.269C227.893 149.888 227.902 152.765 227.198 155.464C227.112 155.909 226.923 156.327 226.645 156.684C226.088 157.119 225.46 157.457 224.791 157.682C224.301 157.989 223.881 158.396 223.56 158.877C223.239 159.357 223.023 159.9 222.928 160.471C222.742 161.62 222.72 162.789 222.865 163.944L223.212 168.46L218.149 169.992L209.839 172.531C207.405 173.146 205.078 174.129 202.939 175.444C201.033 176.771 199.528 178.595 198.589 180.717C197.746 182.93 197.203 185.246 196.975 187.602C196.172 194.196 194.742 200.699 192.705 207.021C192.535 207.502 192.357 207.992 192.178 208.473L191.616 209.889C191.572 209.987 191.527 210.085 191.492 210.183L191.01 211.315C190.797 211.795 190.574 212.268 190.342 212.739L209.804 219.224C209.804 219.456 209.848 219.705 209.884 219.981C210.562 224.755 210.232 229.602 210.856 234.385C210.937 235.18 211.119 235.962 211.4 236.71C210.905 237.137 210.549 237.701 210.374 238.331C210.154 239.349 210.121 240.4 210.276 241.431C210.5 243.871 210.713 246.312 210.937 248.753C211.042 249.64 211.042 250.537 210.937 251.425C210.695 253.038 209.768 254.453 209.26 255.995C208.752 257.535 208.779 259.513 210.054 260.448C210.499 260.752 211.014 260.937 211.552 260.985C212.088 261.034 212.628 260.944 213.12 260.724C214.104 260.273 214.972 259.607 215.662 258.774C219.576 254.427 221.331 248.557 224.372 243.542C225.154 242.386 225.852 241.174 226.458 239.916C226.877 238.945 227.144 237.912 227.483 236.906C227.951 235.566 228.512 234.258 229.16 232.995C229.524 232.274 230.942 230.537 230.622 229.735C230.122 228.354 224.782 227.143 223.489 226.716C222.664 226.347 221.731 226.307 220.877 226.599C220.748 226.661 220.628 226.739 220.521 226.832L220.066 220.943C220.859 220.872 221.644 220.774 222.42 220.641C222.42 219.536 222.393 218.422 222.339 217.3C222.339 216.285 222.294 215.26 222.267 214.236C222.214 211.742 222.161 209.248 222.098 206.799C222.082 205.354 221.99 203.913 221.822 202.478C221.519 200.295 220.85 198.158 220.636 195.958C220.958 195.703 221.337 195.532 221.742 195.459C222.366 195.359 223.002 195.335 223.632 195.388H224.131C226.897 195.348 229.608 194.599 232.004 193.215C234.455 191.94 236.728 190.346 239.135 189.037L240.027 188.565L240.366 188.395L240.936 188.11L241.409 187.888L241.515 187.834C242.933 187.157 244.368 186.498 245.742 185.758C245.835 185.91 245.936 186.056 246.045 186.195C246.378 186.648 246.837 186.992 247.366 187.184C247.894 187.375 248.467 187.406 249.014 187.273C247.329 191.326 245.349 195.245 244.85 199.628C244.119 205.961 246.633 212.098 249.138 217.995L257.064 236.701C257.956 238.768 259.106 241.083 261.273 241.573C262.649 241.758 264.048 241.48 265.249 240.78C268.877 239.052 272.14 236.576 275.465 234.26L275.6 234.367C278.604 236.737 280.485 240.041 282.562 243.204L288.117 252.325C288.078 252.781 288.155 253.24 288.339 253.66C288.744 254.416 289.272 255.099 289.899 255.682C293.43 259.481 295.756 264.238 296.586 269.356C296.659 270.666 297.037 271.941 297.692 273.079C299.18 275.146 302.354 275.012 304.592 273.836C305.283 273.52 305.879 273.029 306.322 272.411C306.697 271.747 306.934 271.014 307.017 270.256C307.425 268.369 307.649 266.448 307.686 264.519C307.65 261.018 306.304 257.536 305.661 253.946ZM273.772 86.1104C274.161 85.8545 274.535 85.578 274.895 85.282C274.142 87.5434 272.928 89.624 271.329 91.3922C270.954 91.8024 270.553 92.1851 270.143 92.5597V92.2741C270.098 91.3833 270.143 90.3946 270.143 89.4505C271.572 88.6021 272.808 87.4644 273.772 86.1104ZM242.291 156.4L242.345 156.23C242.661 156.458 242.936 156.739 243.156 157.059C242.94 157.537 242.839 158.059 242.861 158.583C242.882 159.107 243.026 159.62 243.281 160.078C243.745 160.862 244.583 161.593 244.405 162.493C244.226 163.392 243.085 163.748 242.158 163.899C240.936 164.096 239.733 164.319 238.529 164.559C238.529 164.559 238.529 164.559 238.529 164.497C238.556 163.493 238.42 162.491 238.128 161.531C240.206 160.64 241.489 158.519 242.291 156.4Z" fill="url(#paint0_linear)"/>
<path d="M278.895 51.4529C279.625 50.217 280.071 48.8337 280.2 47.4038C280.328 45.9739 280.137 44.5333 279.638 43.1869C279.139 41.8405 278.347 40.6221 277.317 39.6204C276.287 38.6187 275.048 37.8588 273.687 37.3961C272.327 36.9334 270.881 36.7795 269.453 36.9456C268.027 37.1117 266.654 37.5936 265.436 38.3562C264.219 39.119 263.188 40.1431 262.416 41.3544C261.645 42.5657 261.153 43.9336 260.978 45.3584C260.856 46.3309 260.886 47.3163 261.067 48.2795C258.299 49.5897 255.984 51.6908 254.412 54.3169C252.841 56.9429 252.085 59.9759 252.239 63.0317C250.929 65.0579 250.111 67.361 249.848 69.7584C249.585 72.1558 249.884 74.5815 250.722 76.8431C251.56 79.1048 252.915 81.1402 254.678 82.788C256.44 84.4358 258.563 85.6507 260.877 86.3363C263.191 87.0219 265.634 87.1593 268.01 86.7377C270.387 86.3161 272.633 85.3471 274.569 83.9075C276.506 82.4678 278.081 80.5972 279.167 78.4439C280.254 76.2906 280.825 73.9138 280.833 71.5021C280.833 71.2499 280.833 71.0058 280.833 70.7616C282.757 67.8059 283.617 64.284 283.272 60.7748C282.928 57.2658 281.398 53.9784 278.935 51.4529H278.895Z" fill="#5B4545"/>
<g opacity="0.1">
<path opacity="0.1" d="M260.948 46.9679L261.074 46.8967C261.042 46.7345 261.018 46.5709 261.003 46.4062C260.999 46.4404 260.999 46.4749 261.003 46.5091C260.976 46.6609 260.957 46.8141 260.948 46.9679Z" fill="black"/>
<path opacity="0.1" d="M283.189 62.7859C282.908 65.1462 282.086 67.4099 280.787 69.4011C280.787 69.6452 280.787 69.8894 280.787 70.1335C280.767 74.1297 279.207 77.9647 276.43 80.8404C273.653 83.716 269.872 85.411 265.876 85.5724C261.879 85.7338 257.974 84.3494 254.973 81.7071C251.972 79.0647 250.107 75.3682 249.766 71.3865C249.766 71.8097 249.709 72.2002 249.709 72.6559C249.709 76.7735 251.346 80.7223 254.26 83.6339C257.174 86.5454 261.127 88.1811 265.248 88.1811C269.369 88.1811 273.321 86.5454 276.235 83.6339C279.149 80.7223 280.787 76.7735 280.787 72.6559C280.787 72.4037 280.787 72.1596 280.787 71.9155C282.089 69.9257 282.911 67.6612 283.189 65.3001C283.317 64.2607 283.336 63.2108 283.246 62.1675C283.27 62.3709 283.221 62.5824 283.189 62.7859Z" fill="black"/>
<path opacity="0.1" d="M280.167 46.3982C279.996 47.7036 279.562 48.9605 278.889 50.0923C279.166 50.369 279.418 50.662 279.704 50.9548C279.952 50.2684 280.121 49.5558 280.208 48.8311C280.301 48.0219 280.287 47.2039 280.167 46.3982Z" fill="black"/>
</g>
<path d="M211.217 235.737C211.267 236.338 211.43 236.924 211.698 237.465C211.834 237.734 212.031 237.968 212.276 238.146C212.52 238.324 212.803 238.442 213.101 238.489C213.649 238.493 214.186 238.337 214.647 238.04C215.584 237.547 216.564 236.977 217.052 236.036C217.54 235.095 217.462 234.042 217.379 233.018L216.747 224.962C215.229 224.917 213.7 224.917 212.175 225C210.651 225.084 210.402 225.438 210.613 226.911C211.028 229.834 210.807 232.808 211.217 235.737Z" fill="#FBBEBE"/>
<path d="M284.707 249.136L289.656 257.134C289.871 257.6 290.26 257.964 290.74 258.148C291.094 258.202 291.456 258.138 291.771 257.967C293.373 257.128 294.781 255.962 295.902 254.543C296.799 253.709 297.481 252.669 297.888 251.514C298.049 250.873 298.042 250.202 297.87 249.564C297.697 248.927 297.364 248.344 296.902 247.872C296.329 247.362 295.707 246.911 295.045 246.524C291.127 243.881 289.361 238.867 285.495 236.156C285.279 235.973 285.016 235.856 284.737 235.815C284.45 235.835 284.174 235.929 283.933 236.087L278.628 238.98C276.353 240.23 277.058 240.382 278.802 241.73C281.341 243.713 282.918 246.485 284.707 249.136Z" fill="#FBBEBE"/>
<path d="M221.716 235.141C221.031 234.845 220.26 234.818 219.557 235.067C219.245 235.257 218.981 235.515 218.785 235.823C218.59 236.131 218.469 236.48 218.429 236.842C218.297 237.578 218.312 238.315 218.113 238.999C217.669 240.14 216.947 241.152 216.012 241.944C215.66 242.36 215.206 242.677 214.694 242.864C213.993 243.041 213.257 242.717 212.55 242.864C212.138 242.971 211.764 243.188 211.467 243.492C211.17 243.795 210.961 244.174 210.862 244.586C210.677 245.416 210.649 246.273 210.781 247.112L211.326 253.075C211.416 253.808 211.416 254.55 211.326 255.284C211.127 256.602 210.361 257.75 209.941 259.009C209.521 260.268 209.536 261.872 210.597 262.689C210.968 262.937 211.396 263.086 211.84 263.124C212.284 263.163 212.731 263.09 213.139 262.911C213.95 262.545 214.668 262.001 215.239 261.321C218.481 257.787 219.932 252.994 222.453 248.916C223.097 247.976 223.673 246.992 224.177 245.97C224.523 245.176 224.744 244.336 225.024 243.519C225.412 242.425 225.878 241.36 226.417 240.331C226.711 239.743 227.891 238.329 227.625 237.674C227.235 236.481 222.807 235.487 221.716 235.141Z" fill="#46455B"/>
<path d="M296.985 253.554C296.277 254.89 295.091 255.913 293.662 256.416C293.25 256.529 292.868 256.726 292.537 256.996C292.32 257.259 292.186 257.581 292.15 257.921C292.115 258.26 292.18 258.603 292.337 258.906C292.666 259.507 293.091 260.048 293.597 260.509C296.426 263.504 298.296 267.274 298.97 271.336C299.034 272.377 299.341 273.389 299.865 274.292C301.061 275.931 303.617 275.824 305.423 274.886C305.974 274.635 306.452 274.249 306.812 273.763C307.114 273.237 307.304 272.654 307.371 272.053C307.699 270.558 307.879 269.037 307.908 267.508C307.908 264.645 306.791 261.862 306.275 259.028C305.559 254.999 305.903 250.655 304.026 247.02C303.85 246.585 303.56 246.204 303.188 245.918C302.717 245.67 302.187 245.551 301.655 245.574C299.965 245.51 298.26 245.496 296.562 245.532C296.09 245.532 295.531 245.603 295.288 246.011C295.203 246.239 295.175 246.484 295.207 246.725C295.24 246.966 295.332 247.195 295.474 247.392C296.513 249.446 298.218 251.07 296.985 253.554Z" fill="#46455B"/>
<path d="M243.673 162.323C243.089 162.808 242.693 163.48 242.554 164.225C242.415 164.971 242.542 165.741 242.913 166.403C243.382 167.171 244.212 167.886 244.027 168.769C243.841 169.652 242.719 169.987 241.799 170.137C233.687 171.427 225.787 173.802 217.939 176.168L209.685 178.649C207.269 179.245 204.957 180.204 202.828 181.492C200.942 182.777 199.45 184.559 198.516 186.639C197.677 188.799 197.136 191.062 196.907 193.368C195.67 201.799 194.088 210.302 190.323 217.949L210.322 224.509C212.263 225.218 214.275 225.722 216.322 226.009C218.273 226.176 220.238 226.08 222.163 225.727C222.04 221.268 221.96 216.668 221.837 212.2C221.825 210.79 221.733 209.38 221.563 207.98C221.262 205.843 220.599 203.76 220.387 201.605C221.271 200.846 222.658 201.04 223.851 201.067C226.597 201.03 229.289 200.304 231.681 198.956C234.103 197.702 236.365 196.149 238.751 194.868C242.772 192.74 247.35 191.337 250.425 187.955C248.861 193.915 245.122 199.107 244.441 205.225C243.762 211.344 246.21 217.454 248.71 223.166L256.584 241.426C257.467 243.438 258.607 245.708 260.756 246.185C262.121 246.363 263.509 246.09 264.706 245.408C271.952 242.017 277.749 235.633 285.491 233.603C284.907 229.771 281.885 226.601 280.188 223.131C278.738 220.209 278.27 216.907 277.307 213.79C276.344 210.673 274.656 207.503 271.775 206.02C270.388 205.322 268.523 204.705 268.4 203.159C268.387 202.662 268.494 202.169 268.708 201.72C269.742 199.114 271.352 196.774 273.418 194.877C273.682 194.669 273.893 194.403 274.037 194.1C274.105 193.811 274.12 193.512 274.081 193.217C273.931 190.727 275.266 188.406 276.732 186.401C278.2 184.397 279.94 182.499 280.78 180.158C282.22 176.124 280.78 171.691 279.366 167.656C278.902 165.982 278.095 164.422 276.998 163.074C275.142 161.096 272.261 160.522 269.557 160.222C260.853 159.233 250.61 156.946 243.673 162.323Z" fill="#46455B"/>
<g opacity="0.1">
<path opacity="0.1" d="M276.76 180.145C275.276 182.15 273.941 184.472 274.109 186.962C274.147 187.256 274.133 187.556 274.065 187.845C273.92 188.148 273.709 188.413 273.446 188.622C271.38 190.519 269.77 192.858 268.736 195.464C268.521 195.914 268.416 196.407 268.426 196.904C268.518 197.371 268.729 197.807 269.038 198.169C269.348 198.531 269.746 198.807 270.194 198.97C271.094 197.5 272.195 196.163 273.464 194.997C273.726 194.788 273.938 194.523 274.082 194.219C274.15 193.93 274.165 193.631 274.127 193.337C273.976 190.847 275.311 188.525 276.778 186.52C278.245 184.516 279.986 182.618 280.825 180.278C281.549 177.988 281.623 175.543 281.038 173.214C280.979 173.443 280.908 173.673 280.825 173.903C279.968 176.243 278.254 178.15 276.76 180.145Z" fill="black"/>
<path opacity="0.1" d="M242.763 163.687C243.057 163.628 243.329 163.491 243.551 163.291C243.773 163.09 243.938 162.833 244.027 162.548C244.044 162.434 244.044 162.318 244.027 162.203L243.647 162.477C243.257 162.801 242.953 163.217 242.763 163.687Z" fill="black"/>
<path opacity="0.1" d="M216.322 219.79C214.275 219.502 212.263 218.999 210.322 218.289L192.647 212.497C191.979 214.411 191.196 216.283 190.305 218.104L210.322 224.664C212.263 225.374 214.275 225.877 216.322 226.165C218.273 226.332 220.238 226.236 222.163 225.882C222.101 223.79 222.057 221.662 222.004 219.534C220.129 219.867 218.219 219.952 216.322 219.79Z" fill="black"/>
<path opacity="0.1" d="M264.732 239.188C263.535 239.871 262.149 240.144 260.782 239.965C258.635 239.489 257.477 237.22 256.611 235.206L248.737 216.947C246.97 212.93 245.247 208.753 244.61 204.471C244.557 204.771 244.513 205.071 244.469 205.354C243.753 211.535 246.236 217.583 248.737 223.295L256.611 241.555C257.495 243.568 258.635 245.838 260.782 246.314C262.149 246.493 263.535 246.219 264.732 245.537C271.98 242.146 277.776 235.762 285.518 233.732C285.115 231.727 284.306 229.824 283.14 228.143C276.548 230.73 271.22 236.142 264.732 239.188Z" fill="black"/>
<path opacity="0.1" d="M250.452 181.734C247.376 185.09 242.799 186.52 238.777 188.649C236.365 189.928 234.103 191.483 231.707 192.736C229.316 194.087 226.624 194.816 223.878 194.856C222.685 194.856 221.342 194.626 220.414 195.385C220.608 197.372 221.183 199.306 221.509 201.274C222.294 201.168 223.089 201.151 223.878 201.222C226.623 201.184 229.316 200.459 231.707 199.111C234.129 197.857 236.392 196.303 238.777 195.023C241.428 193.62 244.319 192.524 246.864 190.97C248.278 187.981 249.476 184.894 250.452 181.734Z" fill="black"/>
</g>
<path d="M259.641 94.5736C259.72 95.3869 259.611 96.2074 259.323 96.9718C259.035 97.7362 258.575 98.4241 257.979 98.9829C257.581 99.322 257.112 99.5747 256.729 99.928C256.385 100.28 256.122 100.703 255.958 101.167C255.794 101.631 255.733 102.125 255.78 102.615C255.827 103.105 255.98 103.578 256.229 104.004C256.477 104.428 256.816 104.793 257.22 105.074C258.52 105.868 260.174 105.651 261.677 105.392C263.681 105.115 265.644 104.604 267.527 103.868C269.423 103.126 271.035 101.806 272.136 100.094C271.345 99.5898 270.691 98.8975 270.234 98.0788C269.776 97.2601 269.529 96.3409 269.514 95.4038C269.413 93.5342 269.926 91.4127 268.741 89.9622C267.557 88.5116 265.455 88.5766 263.685 89.0528C262.811 89.2984 261.966 89.6303 261.092 89.8688C260.644 89.9836 259.185 89.9907 258.925 90.3155C258.42 90.9073 259.59 93.6285 259.641 94.5736Z" fill="#FBBEBE"/>
<path opacity="0.1" d="M259.641 94.5736C259.72 95.3869 259.611 96.2074 259.323 96.9718C259.035 97.7362 258.575 98.4241 257.979 98.9829C257.581 99.322 257.112 99.5747 256.729 99.928C256.385 100.28 256.122 100.703 255.958 101.167C255.794 101.631 255.733 102.125 255.78 102.615C255.827 103.105 255.98 103.578 256.229 104.004C256.477 104.428 256.816 104.793 257.22 105.074C258.52 105.868 260.174 105.651 261.677 105.392C263.681 105.115 265.644 104.604 267.527 103.868C269.423 103.126 271.035 101.806 272.136 100.094C271.345 99.5898 270.691 98.8975 270.234 98.0788C269.776 97.2601 269.529 96.3409 269.514 95.4038C269.413 93.5342 269.926 91.4127 268.741 89.9622C267.557 88.5116 265.455 88.5766 263.685 89.0528C262.811 89.2984 261.966 89.6303 261.092 89.8688C260.644 89.9836 259.185 89.9907 258.925 90.3155C258.42 90.9073 259.59 93.6285 259.641 94.5736Z" fill="black"/>
<path d="M264.86 91.4634C270.444 91.4634 274.971 86.9403 274.971 81.3612C274.971 75.7821 270.444 71.2593 264.86 71.2593C259.277 71.2593 254.751 75.7821 254.751 81.3612C254.751 86.9403 259.277 91.4634 264.86 91.4634Z" fill="#FBBEBE"/>
<path d="M226.889 176.966C226.751 177.588 226.502 178.179 226.154 178.712C225.24 180.328 224.911 182.21 225.222 184.039C225.386 184.947 225.771 185.799 226.343 186.523C226.915 187.245 227.657 187.817 228.503 188.185C228.856 188.36 229.249 188.44 229.643 188.416C230.037 188.392 230.418 188.263 230.746 188.045C229.703 186.688 229.644 184.837 229.709 183.125C229.691 182.807 229.766 182.489 229.925 182.211C229.968 182.146 230.024 182.091 230.09 182.048C230.156 182.005 230.23 181.976 230.307 181.963C230.385 181.949 230.464 181.952 230.54 181.969C230.616 181.987 230.688 182.02 230.752 182.066C230.723 183.144 230.932 184.215 231.364 185.204C231.527 185.582 231.807 186.001 232.226 185.99C232.809 185.99 232.978 185.169 232.955 184.575C232.868 182.154 232.745 179.632 231.579 177.513C231.067 176.787 230.673 175.982 230.414 175.131C230.405 174.829 230.299 174.537 230.111 174.299C229.984 174.198 229.833 174.129 229.674 174.096C229.004 173.903 227.407 173.315 226.854 173.944C226.3 174.573 226.994 176.162 226.889 176.966Z" fill="#FBBEBE"/>
<path d="M242.453 112.96C241.278 112.823 240.354 113.898 239.713 114.889C237.315 118.579 235.589 122.663 234.614 126.954C234.119 129.143 233.814 131.415 232.768 133.405C232.519 133.819 232.317 134.259 232.165 134.717C232.08 135.421 232.05 136.129 232.073 136.837C231.966 138.111 231.211 139.247 230.959 140.505C230.806 141.267 230.837 142.03 230.699 142.792C230.47 144.104 229.745 145.279 229.28 146.537C228.463 148.748 228.471 151.173 227.867 153.454C227.794 153.827 227.632 154.178 227.394 154.476C226.99 154.926 226.333 155.033 225.806 155.322C225.387 155.578 225.027 155.921 224.75 156.328C224.473 156.733 224.287 157.194 224.204 157.678C224.044 158.647 224.027 159.633 224.15 160.607L224.624 166.655C225.104 166.448 225.387 165.892 225.83 165.564C226.593 164.954 227.654 165.091 228.601 165.258L229.982 165.51C231.394 165.762 232.928 166.089 233.798 167.204C234.516 166.074 234.111 164.42 235.21 163.673C235.568 163.429 236.019 163.352 236.393 163.139C236.749 162.908 237.046 162.595 237.255 162.226C237.465 161.856 237.583 161.443 237.599 161.019C237.621 160.169 237.506 159.322 237.256 158.509C239.026 157.747 240.125 155.971 240.82 154.178C241.58 152.009 242.132 149.772 242.469 147.498C244.064 138.507 245.522 129.455 245.674 120.328C245.775 118.802 245.607 117.272 245.178 115.805C244.705 114.356 243.972 113.128 242.453 112.96Z" fill="#00C9D0"/>
<path opacity="0.1" d="M242.453 112.96C241.278 112.823 240.354 113.898 239.713 114.889C237.315 118.579 235.589 122.663 234.614 126.954C234.119 129.143 233.814 131.415 232.768 133.405C232.519 133.819 232.317 134.259 232.165 134.717C232.08 135.421 232.05 136.129 232.073 136.837C231.966 138.111 231.211 139.247 230.959 140.505C230.806 141.267 230.837 142.03 230.699 142.792C230.47 144.104 229.745 145.279 229.28 146.537C228.463 148.748 228.471 151.173 227.867 153.454C227.794 153.827 227.632 154.178 227.394 154.476C226.99 154.926 226.333 155.033 225.806 155.322C225.387 155.578 225.027 155.921 224.75 156.328C224.473 156.733 224.287 157.194 224.204 157.678C224.044 158.647 224.027 159.633 224.15 160.607L224.624 166.655C225.104 166.448 225.387 165.892 225.83 165.564C226.593 164.954 227.654 165.091 228.601 165.258L229.982 165.51C231.394 165.762 232.928 166.089 233.798 167.204C234.516 166.074 234.111 164.42 235.21 163.673C235.568 163.429 236.019 163.352 236.393 163.139C236.749 162.908 237.046 162.595 237.255 162.226C237.465 161.856 237.583 161.443 237.599 161.019C237.621 160.169 237.506 159.322 237.256 158.509C239.026 157.747 240.125 155.971 240.82 154.178C241.58 152.009 242.132 149.772 242.469 147.498C244.064 138.507 245.522 129.455 245.674 120.328C245.775 118.802 245.607 117.272 245.178 115.805C244.705 114.356 243.972 113.128 242.453 112.96Z" fill="black"/>
<path d="M274.152 101.074C272.3 103.014 269.935 104.389 267.331 105.038C264.738 105.677 262.089 106.065 259.422 106.2C258.603 106.333 257.764 106.261 256.979 105.991C256.593 105.842 256.275 105.556 256.088 105.186C255.901 104.817 255.858 104.392 255.966 103.992C256.109 103.753 256.207 103.489 256.259 103.215C256.259 102.529 255.238 102.47 254.585 102.671C250.267 104.009 246.124 106.651 244.133 110.707C243.127 113.057 242.5 115.552 242.275 118.098C241.338 124.788 240.4 131.536 241.655 138.166C242.333 141.686 243.622 145.106 243.697 148.685C243.747 150.692 243.405 152.691 243.421 154.697C243.364 155.4 243.553 156.101 243.956 156.679C244.266 157.038 244.735 157.265 244.952 157.691C245.313 158.393 244.827 159.363 245.304 160.007C245.898 160.793 247.12 160.224 247.932 159.673C252.004 156.911 256.921 155.676 261.816 156.186C267.674 156.812 273.532 159.948 279.24 158.376C278.946 157.951 278.694 157.497 278.487 157.022C275.641 147.69 275.834 137.247 280.093 128.467C281.541 125.465 283.441 122.614 284.028 119.319C284.252 117.782 284.272 116.222 284.085 114.679C283.888 111.671 282.985 108.753 281.45 106.158C279.834 103.591 277.148 101.375 274.152 101.074Z" fill="#00C9D0"/>
<path d="M247.278 180.124C247.034 180.782 246.916 181.48 246.931 182.182C246.91 182.852 246.944 183.522 247.031 184.187C247.083 184.756 247.287 185.3 247.621 185.764C247.791 185.992 248.025 186.164 248.293 186.26C248.561 186.356 248.851 186.369 249.127 186.299C249.343 186.209 249.536 186.072 249.692 185.896C249.847 185.722 249.963 185.515 250.029 185.29C250.159 184.839 250.255 184.378 250.317 183.912C250.579 182.561 251.301 181.254 251.314 179.858C251.323 179.692 251.297 179.527 251.237 179.371C250.976 178.799 249.691 178.155 249.064 178.25C248.288 178.372 247.567 179.462 247.278 180.124Z" fill="#FBBEBE"/>
<path opacity="0.1" d="M279.342 111.556C279.13 113.742 281.244 115.388 282.081 117.41C282.419 118.359 282.612 119.352 282.654 120.359C283.244 127.343 282.785 134.361 282.326 141.345C282.259 143.672 281.984 145.988 281.507 148.265C280.327 153.039 277.409 157.183 274.581 161.195C274.153 161.853 273.655 162.461 273.097 163.013C272.263 163.689 271.336 164.24 270.344 164.65L260.591 169.376C259.367 169.914 258.205 170.582 257.124 171.365C255.867 172.349 254.881 173.633 254.255 175.099C252.362 174.133 250.395 173.265 248.518 172.299C248.076 172.069 247.576 171.775 247.502 171.284C247.404 170.629 248.092 170.161 248.568 169.645C249.452 168.77 249.723 167.468 250.207 166.321C251.78 162.555 255.722 160.147 257.148 156.331C257.698 154.865 257.862 153.203 258.837 151.975C259.392 151.359 260.016 150.809 260.697 150.337C262.193 149.062 263.564 147.651 264.796 146.12C265.353 145.542 265.811 144.876 266.147 144.147C266.46 143.023 266.568 141.853 266.467 140.691C266.541 136.875 268.271 133.321 269.328 129.652C270.319 126.205 270.737 122.586 272.04 119.236C273.344 115.888 275.851 112.456 279.342 111.556Z" fill="black"/>
<path d="M280.778 111.556C280.565 113.742 282.671 115.389 283.508 117.411C283.849 118.36 284.045 119.354 284.09 120.36C284.672 127.346 284.221 134.365 283.762 141.351C283.681 143.679 283.393 145.995 282.901 148.271C281.721 153.046 278.802 157.191 275.974 161.204C275.546 161.861 275.049 162.47 274.491 163.022C273.657 163.698 272.729 164.25 271.737 164.66L261.974 169.386C260.752 169.927 259.59 170.595 258.506 171.376C257.252 172.361 256.265 173.645 255.637 175.11C253.743 174.144 251.785 173.276 249.899 172.31C249.457 172.08 248.957 171.786 248.883 171.294C248.776 170.638 249.465 170.172 249.94 169.656C250.833 168.78 251.104 167.478 251.579 166.331C253.145 162.564 257.096 160.156 258.523 156.339C259.072 154.872 259.236 153.21 260.211 151.982C260.763 151.362 261.387 150.812 262.072 150.344C263.568 149.07 264.94 147.657 266.17 146.126C266.729 145.548 267.186 144.881 267.523 144.152C267.831 143.027 267.939 141.858 267.842 140.696C267.916 136.879 269.638 133.325 270.695 129.656C271.696 126.208 272.105 122.588 273.409 119.238C274.712 115.888 277.303 112.456 280.778 111.556Z" fill="#00C9D0"/>
<path d="M271.404 64.4591C268.246 64.0758 265.048 64.7388 262.303 66.3465C262.709 66.3465 263.114 66.3465 263.519 66.4382C266.553 66.8045 269.395 68.1134 271.645 70.1802C273.895 72.2471 275.438 74.9674 276.058 77.9576C276.677 80.9477 276.341 84.0566 275.098 86.8458C273.854 89.6348 271.764 91.9636 269.125 93.503C272.875 93.6232 276.527 92.2946 279.323 89.7949C282.119 87.2953 283.843 83.8156 284.139 80.0786C284.434 76.3417 283.277 72.6346 280.909 69.7275C278.54 66.8202 275.141 64.9363 271.419 64.4668L271.404 64.4591Z" fill="#5B4545"/>
<path d="M274.274 73.2243C274.619 74.004 274.808 74.8443 274.826 75.6968C274.846 76.5493 274.695 77.3971 274.385 78.1915C274.318 77.9907 274.243 77.7899 274.154 77.5892C272.398 73.6853 266.994 72.0718 262.075 73.9828C260.767 74.4468 259.572 75.1814 258.568 76.1386C257.564 77.0957 256.773 78.2539 256.248 79.5374C254.998 75.7599 257.535 71.4322 262.202 69.6178C267.114 67.7068 272.517 69.3204 274.274 73.2243Z" fill="#5B4545"/>
<g opacity="0.1">
<path opacity="0.1" d="M275.932 72.9157C275.7 70.0995 274.655 67.4111 272.922 65.1771C271.19 62.9432 268.846 61.2595 266.176 60.3306C264.818 60.6513 263.513 61.1663 262.303 61.8597C262.709 61.8597 263.115 61.8597 263.52 61.9515C266.458 62.3063 269.217 63.5449 271.435 65.5031C273.652 67.4612 275.22 70.0463 275.932 72.9157Z" fill="#934646"/>
<path opacity="0.1" d="M278.297 62.265C278.063 59.4493 277.016 56.7619 275.285 54.5282C273.553 52.2945 271.21 50.6104 268.54 49.6798C267.181 50.0186 265.878 50.549 264.667 51.2548C265.073 51.2548 265.479 51.2548 265.892 51.3466C268.823 51.6987 271.577 52.9309 273.792 54.8803C276.007 56.8298 277.578 59.4047 278.297 62.265Z" fill="#934646"/>
<path opacity="0.1" d="M278.358 46.369C278.212 44.6767 277.578 43.063 276.534 41.7226C275.49 40.3822 274.08 39.3722 272.473 38.8148C271.652 39.0141 270.863 39.3309 270.132 39.7553C270.377 39.7553 270.622 39.7553 270.897 39.8165C272.657 40.0309 274.31 40.7711 275.641 41.9403C276.973 43.1095 277.919 44.6531 278.358 46.369Z" fill="#934646"/>
<path opacity="0.1" d="M283.822 70.9277C284.104 74.4258 283.116 77.9085 281.039 80.7387C278.962 83.5691 275.936 85.5579 272.512 86.3418C271.526 87.4116 270.386 88.3289 269.129 89.0642C271.393 89.1461 273.645 88.7014 275.708 87.7641C277.77 86.8268 279.585 85.4229 281.011 83.6636C282.437 81.9041 283.432 79.8375 283.921 77.627C284.408 75.4165 284.375 73.123 283.822 70.9277Z" fill="#934646"/>
</g>
<path d="M440.666 262.552C439.582 261.658 438.238 261.137 436.834 261.068C435.43 260.999 434.04 261.386 432.875 262.171C431.102 263.482 430.331 265.66 429.604 267.715C428.541 270.752 426.822 273.701 426.538 276.915C425.749 285.77 419.536 293.217 417.676 301.895C416.993 304.995 416.86 308.254 415.575 311.148C414.96 312.42 414.249 313.643 413.448 314.806C410.331 319.702 407.662 324.867 405.471 330.241C403.929 330.71 402.662 332.189 401.43 333.366C399.85 334.876 397.959 336.024 395.891 336.731C395.047 336.919 394.26 337.305 393.595 337.855C392.708 338.794 392.708 340.309 391.973 341.398C391.45 342.111 390.755 342.68 389.952 343.053C389.898 342.802 389.856 342.548 389.828 342.292C389.642 340.937 389.491 339.583 389.35 338.227C391.414 335.219 392.336 331.574 391.953 327.947C391.569 324.32 389.905 320.948 387.258 318.436C387.094 316.322 387.156 314.197 387.444 312.096C387.575 311.591 387.561 311.059 387.405 310.562C387.248 310.064 386.954 309.62 386.557 309.28C386.123 309.006 385.592 308.944 385.131 308.714C384.463 308.266 383.895 307.684 383.464 307.004C382.219 305.595 380.514 304.67 378.653 304.395C376.791 304.119 374.891 304.511 373.29 305.499C370.808 307.155 369.497 310.095 367.379 312.212C366.28 313.301 364.977 314.16 363.887 315.249C361.707 317.584 360.29 320.528 359.827 323.688C359.373 326.83 359.244 330.011 359.446 333.18C359.424 334.141 359.562 335.099 359.854 336.014C360.17 336.764 360.607 337.458 361.148 338.068C363.745 341.452 367.178 344.104 371.11 345.763C371.137 345.951 371.152 346.14 371.155 346.33C371.155 346.622 371.155 346.914 371.083 347.215L370.649 347.145C369.054 346.95 367.37 347.145 365.89 346.533C363.364 345.444 362.345 342.239 359.854 340.982C359.648 340.873 359.43 340.784 359.207 340.715C358.616 336.589 357.4 332.576 355.6 328.814C354.713 327.043 353.712 325.202 353.606 323.201C353.66 321.34 354.08 319.508 354.838 317.808C356.841 311.725 358.422 305.512 359.57 299.212C360.374 295.263 361.184 291.314 361.999 287.364C363.099 286.364 364.069 285.231 364.888 283.99C366.596 281.523 367.595 278.635 367.778 275.64C367.857 274.146 367.639 272.652 367.137 271.244C366.635 269.835 365.859 268.539 364.852 267.431C364.409 266.892 363.854 266.454 363.225 266.148C362.597 265.843 361.909 265.676 361.21 265.66C360.608 265.732 360.026 265.925 359.502 266.23C358.978 266.534 358.521 266.944 358.162 267.431C357.079 268.946 356.296 270.653 355.857 272.461C354.97 275.401 354.084 278.465 354.484 281.511C354.847 284.035 356.078 286.771 354.82 288.984C350.672 296.237 347.81 304.392 344.734 312.167C343.941 314.032 343.295 315.957 342.802 317.923C342.186 321.091 342.079 324.337 342.483 327.54C343.212 333.544 344.371 339.489 345.948 345.329C346.595 347.986 347.358 350.793 348.882 352.98C348.341 355.947 348.21 358.974 348.492 361.976C348.528 362.67 348.709 363.349 349.023 363.969C349.532 364.683 350.148 365.313 350.849 365.838C351.8 366.721 352.551 367.798 353.051 368.996C353.55 370.193 353.788 371.483 353.748 372.78C353.79 375.204 354.261 377.603 355.139 379.864C357.257 386.178 359.384 392.491 361.237 398.894C361.638 400.079 361.859 401.318 361.893 402.568C361.893 404.339 361.051 406.111 361.441 407.882C361.738 408.682 361.981 409.501 362.167 410.334C362.181 410.978 362.097 411.62 361.919 412.238C360.767 417.241 357.434 428.78 358.01 433.888L359.154 433.491C358.666 440.255 356.575 446.879 355.812 453.644C355.312 458.57 355.365 463.536 355.972 468.45C356.303 470.646 356.492 472.861 356.539 475.083C356.539 477.075 356.221 479.041 356.141 481.024C356.101 483.689 356.257 486.352 356.61 488.994C356.957 493.137 357.618 497.249 358.587 501.293C360.43 508.165 359.189 515.32 359.393 522.439C359.631 527.406 359.581 532.382 359.243 537.342C359.057 539.441 358.764 541.531 358.702 543.639C358.516 549.89 360.368 556.115 359.713 562.331C359.402 565.245 358.657 568.529 360.492 570.824C361.077 571.541 361.866 572.054 362.486 572.736C362.824 573.053 363.073 573.452 363.208 573.895C363.343 574.338 363.36 574.808 363.257 575.26C363.018 575.959 362.372 576.473 362.22 577.208C362.052 578.359 363.319 579.156 364.418 579.527L364.729 579.616C364.706 580.001 364.764 580.385 364.9 580.746C365.036 581.105 365.246 581.433 365.517 581.706C366.205 582.231 367.024 582.556 367.883 582.645L382.064 585.39C385.228 586 388.667 586.576 391.636 585.505C391.751 585.934 391.98 586.323 392.301 586.63C392.986 587.153 393.801 587.478 394.658 587.568L408.839 590.313C412.455 591.013 416.425 591.659 419.651 589.871C420.582 589.374 421.367 588.645 421.929 587.754C422.382 586.91 422.645 585.977 422.698 585.022C422.751 584.065 422.595 583.109 422.24 582.219C421.967 581.309 421.416 580.506 420.662 579.926C419.656 579.374 418.509 579.128 417.365 579.218C416.393 579.289 415.418 579.14 414.511 578.784C414.233 578.638 413.991 578.433 413.802 578.182C414.511 577.297 415.194 576.411 415.841 575.526C415.229 575.383 414.954 574.542 414.804 573.922C412.978 564.731 415.539 555.327 415.912 545.941C416.1 541.241 415.731 536.536 414.813 531.923C414.467 530.152 414.05 528.47 413.802 526.716C412.499 517.569 415.982 508.28 414.874 499.107C414.352 494.82 416.195 490.339 416.851 486.072C417.427 482.282 417.054 478.42 416.683 474.56L413.749 444.453C413.35 440.388 412.933 436.226 411.196 432.525C410.329 430.455 409.918 428.223 409.992 425.981C413.536 423.954 416.798 421.164 420.804 421.155C421.575 418.233 419.359 409.014 418.065 406.288C413.018 395.535 411.022 383.605 412.295 371.797C412.765 367.556 411.073 363.278 411.64 359.046C411.724 358.055 412.002 357.089 412.455 356.204C412.683 355.764 413.02 355.39 413.432 355.116C413.844 354.842 414.319 354.678 414.813 354.636C414.565 352.094 414.236 349.536 413.802 346.994C415.26 345.507 416.459 343.786 417.347 341.903C419.191 338.05 420.006 333.8 421.079 329.674C423.028 322.404 426.007 315.462 428.364 308.324C430.721 301.187 430.26 293.643 431.953 286.31C432.909 282.271 435.384 278.754 438.866 276.49C440.214 275.605 441.747 274.923 442.678 273.612C443.379 272.535 443.748 271.276 443.741 269.991C443.82 268.6 443.585 267.208 443.053 265.92C442.52 264.633 441.704 263.481 440.666 262.552ZM386.496 572.373C386.761 572.01 387.018 571.647 387.258 571.266C386.318 571.213 385.131 570.664 385.015 569.725C384.987 568.786 385.092 567.847 385.326 566.936C385.593 565.308 385.493 563.641 385.033 562.057C384.706 560.958 384.218 559.905 383.864 558.807C383.517 557.581 383.242 556.336 383.039 555.079C382.17 550.582 380.819 546.19 379.007 541.983C377.234 537.9 378.608 533.446 378.625 528.992C378.625 526.893 378.307 524.75 378.838 522.714C379.148 521.509 379.724 520.393 380.052 519.172C380.78 516.365 379.866 513.416 378.971 510.662C382.472 502.391 382.942 492.952 383.66 483.955C384.061 478.926 384.464 473.908 384.865 468.901C385.042 466.662 385.246 464.333 386.425 462.42C388.519 468.815 389.766 475.456 390.138 482.176C390.175 484.117 390.401 486.05 390.812 487.948C391.37 490.048 392.46 491.951 393.187 493.988C394.8 498.469 394.632 503.365 395.358 508.068C395.651 509.971 396.094 511.849 396.378 513.752C397.601 522.156 395.624 530.665 393.657 538.928C392.451 543.993 392.647 549.597 392.372 554.796C392.115 559.781 391.849 564.766 391.973 569.761C391.973 571.284 392.07 572.842 392.052 574.392C391.57 574.334 391.085 574.307 390.599 574.312C389.628 574.383 388.652 574.234 387.745 573.879C387.184 573.516 386.748 572.991 386.496 572.373Z" fill="url(#paint1_linear)"/>
<path d="M420.841 593.806C422.036 593.714 423.233 593.968 424.288 594.537C425.071 595.144 425.648 595.979 425.937 596.926C426.307 597.85 426.469 598.845 426.412 599.838C426.354 600.832 426.078 601.801 425.604 602.676C425.014 603.602 424.194 604.359 423.222 604.87C419.849 606.722 415.697 606.065 411.916 605.343L397.088 602.501C396.194 602.422 395.339 602.102 394.614 601.574C394.163 601.079 393.879 600.457 393.801 599.793C393.723 599.128 393.855 598.456 394.178 597.87C394.824 596.702 395.788 595.739 396.958 595.093C401.222 592.445 406.226 591.39 411.119 590.824C412.973 590.602 414.705 590.009 416.095 591.297C416.837 591.972 416.8 592.815 417.838 593.361C418.793 593.729 419.819 593.881 420.841 593.806Z" fill="#9B9B9B"/>
<path d="M388.983 588.713C390.007 588.621 391.031 588.875 391.933 589.444C392.61 590.047 393.106 590.883 393.349 591.834C393.669 592.756 393.811 593.75 393.763 594.744C393.715 595.738 393.478 596.708 393.071 597.583C392.563 598.508 391.859 599.263 391.027 599.778C388.133 601.629 384.57 600.973 381.317 600.25L368.593 597.398C367.826 597.321 367.091 597 366.469 596.473C366.082 595.979 365.837 595.356 365.768 594.692C365.7 594.028 365.812 593.355 366.088 592.769C366.66 591.6 367.5 590.638 368.513 589.991C372.164 587.352 376.466 586.333 380.665 585.732C382.256 585.5 383.743 584.917 384.935 586.194C385.564 586.871 385.539 587.713 386.422 588.26C387.236 588.63 388.111 588.785 388.983 588.713Z" fill="#9B9B9B"/>
<path d="M386.803 430.92C378.848 430.953 370.905 431.559 363.036 432.733C362.516 432.781 362.008 432.915 361.531 433.128C359.862 433.988 359.81 436.326 359.853 438.199C359.965 445.822 357.359 453.205 356.498 460.768C356.005 465.516 356.054 470.306 356.645 475.042C356.958 477.164 357.141 479.302 357.195 481.446C357.195 483.354 356.877 485.253 356.8 487.17C356.76 489.726 356.909 492.283 357.247 494.818C357.584 498.815 358.226 502.779 359.165 506.679C360.946 513.305 359.742 520.206 359.931 527.064C360.16 531.853 360.106 536.651 359.768 541.434C359.587 543.462 359.303 545.473 359.243 547.51C359.062 553.526 360.852 559.542 360.214 565.558C359.914 568.36 359.182 571.574 360.963 573.74C361.531 574.427 362.297 574.926 362.89 575.587C363.214 575.891 363.455 576.275 363.588 576.699C363.721 577.124 363.741 577.576 363.647 578.011C363.406 578.69 362.744 579.189 362.64 579.893C362.469 581.002 363.698 581.775 364.765 582.128C368.828 583.374 373.185 583.27 377.184 581.834C381.184 580.398 384.61 577.705 386.949 574.161C386.038 574.109 384.885 573.576 384.773 572.674C384.746 571.768 384.847 570.862 385.074 569.984C385.337 568.416 385.241 566.808 384.79 565.283C384.481 564.217 383.999 563.203 383.664 562.146C383.327 560.965 383.06 559.765 382.864 558.554C382.025 554.213 380.716 549.976 378.958 545.92C377.238 541.984 378.58 537.686 378.597 533.407C378.597 531.378 378.296 529.307 378.803 527.348C379.105 526.179 379.664 525.104 379.99 523.91C380.696 521.203 379.81 518.367 378.941 515.711C382.381 507.736 382.812 498.591 383.509 489.928L384.687 475.318C384.859 473.16 385.065 470.909 386.201 469.07C388.232 475.233 389.444 481.636 389.805 488.115C389.834 489.991 390.049 491.859 390.45 493.693C390.992 495.704 392.042 497.543 392.756 499.511C394.313 503.808 394.149 508.544 394.855 513.081C395.139 514.921 395.56 516.725 395.835 518.565C397.022 526.669 395.095 534.894 393.177 542.843C392.007 547.725 392.188 553.156 391.921 558.15C391.663 562.954 391.405 567.758 391.526 572.57C391.629 576.997 391.972 581.75 389.59 585.462C392.256 586.82 395.01 588.204 397.985 588.462C401.448 588.645 404.866 587.611 407.645 585.54C410.396 583.471 412.788 580.966 414.725 578.122C414.122 577.985 413.864 577.168 413.718 576.576C411.946 567.715 414.441 558.614 414.81 549.589C414.993 545.061 414.638 540.525 413.752 536.079C413.417 534.361 413.004 532.736 412.764 531.052C411.516 522.235 414.897 513.27 413.83 504.409C413.331 500.267 415.12 495.953 415.757 491.827C416.316 488.175 415.964 484.454 415.602 480.775L412.772 451.77C412.393 447.843 411.989 443.828 410.303 440.262C408.29 435.964 409.538 430.671 409.322 425.935C402.218 429.061 394.565 430.754 386.803 430.92Z" fill="#A69077"/>
<path d="M407.044 330.419C409.288 324.297 412.201 318.442 415.732 312.959C416.477 311.882 417.138 310.751 417.71 309.574C418.914 306.906 419.038 303.891 419.673 301.026C421.444 293.004 427.231 286.119 427.973 277.966C428.237 274.993 429.836 272.267 430.833 269.458C431.501 267.556 432.259 265.547 433.875 264.335C434.96 263.613 436.248 263.257 437.551 263.318C438.853 263.381 440.101 263.858 441.112 264.682C442.098 265.535 442.875 266.604 443.382 267.804C443.89 269.006 444.115 270.307 444.038 271.608C444.042 272.795 443.698 273.957 443.05 274.952C442.176 276.162 440.758 276.812 439.505 277.612C436.274 279.693 433.968 282.937 433.067 286.671C431.485 293.449 431.913 300.408 429.712 307.005C427.511 313.602 424.766 320.026 422.929 326.77C421.898 330.583 421.165 334.512 419.442 338.07C417.719 341.628 414.792 344.84 410.943 345.754C410.701 343.305 410.066 340.911 409.063 338.662C407.91 336.06 406.072 333.062 407.044 330.419Z" fill="#A0616A"/>
<path d="M357.326 335.234C357.03 330.762 355.875 326.39 353.925 322.355C353.159 320.824 352.302 319.293 352.209 317.541C352.256 315.943 352.618 314.37 353.274 312.911C355.008 307.679 356.377 302.332 357.371 296.91L359.486 286.733C360.432 285.875 361.267 284.903 361.975 283.84C363.454 281.725 364.319 279.244 364.48 276.67C364.55 275.385 364.363 274.1 363.931 272.888C363.498 271.677 362.828 270.564 361.96 269.614C361.572 269.157 361.089 268.787 360.546 268.531C360.004 268.275 359.412 268.138 358.811 268.13C358.291 268.191 357.789 268.359 357.335 268.622C356.882 268.885 356.488 269.239 356.177 269.66C355.256 270.95 354.593 272.405 354.224 273.945C353.458 276.471 352.691 279.096 353.029 281.713C353.335 283.878 354.407 286.227 353.313 288.125C349.72 294.362 347.246 301.356 344.581 308.021C343.899 309.624 343.343 311.276 342.919 312.965C342.381 315.687 342.283 318.477 342.628 321.23C343.255 326.396 344.253 331.511 345.615 336.535C346.38 339.688 347.338 343.115 349.988 345.006C352.171 341.516 354.377 338.096 357.326 335.234Z" fill="#A0616A"/>
<path d="M376.218 345.759C383.727 345.759 389.814 339.678 389.814 332.176C389.814 324.674 383.727 318.592 376.218 318.592C368.709 318.592 362.622 324.674 362.622 332.176C362.622 339.678 368.709 345.759 376.218 345.759Z" fill="#A0616A"/>
<path d="M371.802 350.336C371.722 352.854 370.627 355.212 369.547 357.497C368.895 358.873 368.042 360.409 366.552 360.715C370.745 362.391 375.097 363.639 379.541 364.441C381.063 364.781 382.63 364.871 384.18 364.706C385.483 364.473 386.735 364.01 387.875 363.338C390.379 361.92 392.525 359.952 394.153 357.582C395.782 355.212 396.849 352.504 397.273 349.661C395.568 349.883 393.843 349.929 392.128 349.798C391.157 349.823 390.214 349.475 389.494 348.824C389.041 348.193 388.783 347.443 388.754 346.668C388.448 344.383 388.204 342.092 388.02 339.796C384.62 339.928 381.274 340.695 378.156 342.057C376.868 342.621 375.611 343.272 374.283 343.755C373.477 344.045 371.15 344.101 370.587 344.624C369.717 345.452 371.85 348.598 371.802 350.336Z" fill="#A0616A"/>
<path d="M378.634 359.237C378.267 357.304 377.303 355.535 375.876 354.179C374.449 352.823 372.632 351.95 370.68 351.681C369.114 351.499 367.461 351.681 366.008 351.099C363.528 350.03 362.484 346.909 360.082 345.683C357.68 344.457 354.566 345.596 352.79 347.648C351.015 349.7 350.267 352.49 349.727 355.098C348.891 358.716 348.618 362.44 348.917 366.14C348.959 366.819 349.14 367.481 349.449 368.087C349.947 368.783 350.549 369.399 351.232 369.913C352.165 370.77 352.902 371.818 353.393 372.985C353.884 374.153 354.118 375.412 354.078 376.677C354.109 379.058 354.568 381.414 355.435 383.632C357.515 389.788 359.603 395.952 361.413 402.194C361.808 403.349 362.025 404.557 362.057 405.776C362.014 407.515 361.187 409.254 361.613 410.949C361.897 411.731 362.133 412.529 362.318 413.34C362.333 413.969 362.251 414.597 362.074 415.201C360.934 420.087 357.663 431.337 358.228 436.319C365.651 433.588 376.851 431.971 384.716 431.102C386.881 430.853 389.056 430.726 391.234 430.719C396.456 430.719 401.928 431.702 406.801 429.79C411.317 428.051 415.068 423.86 419.923 423.842C420.681 421 418.505 412.01 417.244 409.35C412.294 398.872 410.342 387.229 411.605 375.713C412.058 371.574 410.404 367.401 410.97 363.271C411.051 362.304 411.319 361.361 411.762 360.497C411.99 360.068 412.322 359.703 412.728 359.434C413.134 359.165 413.6 359.002 414.085 358.959C413.507 352.484 412.238 346.089 410.299 339.884C409.595 337.676 408.325 335.12 406.009 334.971C403.922 334.832 402.381 336.71 400.876 338.18C399.322 339.653 397.467 340.771 395.438 341.458C394.606 341.641 393.83 342.019 393.175 342.562C392.304 343.475 392.304 344.961 391.583 346.04C390.33 347.97 387.127 348.152 386.361 350.308C386.201 350.942 386.087 351.587 386.022 352.238C385.666 353.507 384.954 354.648 383.968 355.525C382.526 357.185 380.693 358.46 378.634 359.237Z" fill="#2F2E41"/>
<path d="M385.125 315.103C385.24 314.659 385.228 314.193 385.089 313.756C384.95 313.319 384.691 312.931 384.341 312.635C383.927 312.441 383.503 312.271 383.07 312.125C382.482 311.725 381.983 311.208 381.604 310.606C380.5 309.363 378.993 308.549 377.347 308.309C375.702 308.068 374.024 308.416 372.61 309.289C370.406 310.747 369.254 313.332 367.372 315.189C366.408 316.152 365.255 316.905 364.283 317.868C362.357 319.915 361.102 322.501 360.683 325.28C360.281 328.044 360.168 330.843 360.346 333.63C360.323 334.476 360.445 335.318 360.707 336.122C360.989 336.78 361.375 337.389 361.852 337.924C364.242 341.044 367.446 343.445 371.112 344.865C374.798 346.165 379.102 346.008 382.396 343.901C382.726 343.719 382.997 343.447 383.18 343.118C383.336 342.629 383.336 342.103 383.18 341.613C382.787 339.663 382.975 337.638 383.721 335.793C384.375 334.508 384.956 333.187 385.462 331.836C385.784 330.29 385.826 328.698 385.588 327.136C385.203 323.14 384.505 319.114 385.125 315.103Z" fill="#46455B"/>
<path opacity="0.5" d="M658.031 66.6307C658.809 65.5235 659.238 64.209 659.263 62.8562C659.263 54.6602 642.55 48.0278 621.935 48.0278C601.319 48.0278 584.606 54.6602 584.606 62.8562C584.623 64.3804 585.138 65.8573 586.073 67.0621C563.117 69.6234 547.656 74.4224 547.656 79.9314C547.656 88.1185 581.836 94.7595 624.111 94.7595C666.387 94.7595 700.567 88.1185 700.567 79.9314C700.594 74.1348 683.216 69.0572 658.031 66.6307Z" fill="#00C9D0"/>
<path opacity="0.5" d="M627.616 400.982C628.393 399.875 628.822 398.561 628.847 397.208C628.847 389.012 612.135 382.38 591.519 382.38C570.903 382.38 554.191 389.012 554.191 397.208C554.207 398.732 554.722 400.209 555.656 401.414C532.702 403.975 517.24 408.774 517.24 414.283C517.24 422.47 551.42 429.111 593.696 429.111C635.972 429.111 670.152 422.47 670.152 414.283C670.178 408.487 652.801 403.409 627.616 400.982Z" fill="#00C9D0"/>
<path opacity="0.5" d="M186.323 83.2974C187.101 82.1902 187.53 80.8757 187.555 79.5229C187.555 71.3268 170.843 64.6945 150.226 64.6945C129.611 64.6945 112.898 71.3268 112.898 79.5229C112.935 81.0555 113.476 82.5332 114.436 83.7289C91.4812 86.2901 76.0194 91.0888 76.0194 96.598C76.0194 104.785 110.244 111.427 152.475 111.427C194.706 111.427 228.932 104.785 228.932 96.598C228.886 90.8013 211.509 85.724 186.323 83.2974Z" fill="#00C9D0"/>
<path opacity="0.42" d="M151.199 430.613C151.978 429.505 152.407 428.19 152.432 426.838C152.432 418.642 135.72 412.009 115.103 412.009C94.4872 412.009 77.7748 418.642 77.7748 426.838C77.8121 428.37 78.3526 429.848 79.3129 431.043C56.3581 433.605 40.896 438.404 40.896 443.913C40.896 452.1 75.1213 458.742 117.352 458.742C159.583 458.742 193.808 452.1 193.808 443.913C193.763 438.116 176.385 433.038 151.199 430.613Z" fill="#00C9D0"/>
<path opacity="0.35" d="M153.024 266.401C153.972 264.817 154.494 262.936 154.525 261.001C154.525 249.275 134.166 239.787 109.052 239.787C83.938 239.787 63.5793 249.275 63.5793 261.001C63.6248 263.193 64.2832 265.307 65.453 267.018C37.4899 270.682 18.6542 277.548 18.6542 285.429C18.6542 297.142 60.3469 306.643 111.792 306.643C163.236 306.643 204.929 297.142 204.929 285.429C204.874 277.136 183.705 269.872 153.024 266.401Z" fill="#00C9D0"/>
<path opacity="0.1" d="M460.032 70.1364C461.988 69.0042 464.633 70.0861 465.976 71.9145C467.318 73.7429 467.655 76.108 468.032 78.3055C468.78 83.2705 469.325 88.9654 465.976 92.6976C471.448 76.1164 487.188 63.4183 504.59 61.5648" stroke="#00C9D0" stroke-width="3" stroke-miterlimit="10"/>
<path opacity="0.1" d="M150.937 163.631C152.124 162.943 153.721 163.631 154.535 164.705C155.261 165.875 155.69 167.204 155.786 168.578C156.236 171.588 156.576 175.034 154.543 177.27C156.278 172.253 159.389 167.825 163.521 164.489C167.654 161.154 172.641 159.047 177.914 158.407" stroke="#00C9D0" stroke-width="3" stroke-miterlimit="10"/>
<path opacity="0.1" d="M567.97 191.408C569.156 190.721 570.753 191.408 571.568 192.483C572.294 193.653 572.723 194.982 572.818 196.355C573.268 199.366 573.609 202.811 571.576 205.047C573.311 200.031 576.421 195.602 580.553 192.267C584.686 188.932 589.673 186.824 594.946 186.186" stroke="#00C9D0" stroke-width="3" stroke-miterlimit="10"/>
<path opacity="0.9" d="M531.176 499V480.016L539.933 488.765L542.122 486.5L529.612 474L517.101 486.5L519.29 488.68L528.048 480.016V499H531.176Z" fill="#00C9D0"/>
<path opacity="0.9" d="M306.905 573.074V554.089L315.663 562.84L317.852 560.574L305.341 548.074L292.83 560.574L295.019 562.753L303.777 554.089V573.074H306.905Z" fill="#00C9D0"/>
<path opacity="0.9" d="M474.471 641.593V619.092L484.85 629.463L487.445 626.778L472.618 611.963L457.79 626.778L460.384 629.362L470.764 619.092V641.593H474.471Z" fill="#00C9D0"/>
<defs>
<linearGradient id="paint0_linear" x1="249.005" y1="274.834" x2="249.005" y2="33.3067" gradientUnits="userSpaceOnUse">
<stop stop-color="#808080" stop-opacity="0.25"/>
<stop offset="0.54" stop-color="#808080" stop-opacity="0.12"/>
<stop offset="1" stop-color="#808080" stop-opacity="0.1"/>
</linearGradient>
<linearGradient id="paint1_linear" x1="68629.7" y1="149853" x2="81705.8" y2="148500" gradientUnits="userSpaceOnUse">
<stop stop-color="#808080" stop-opacity="0.25"/>
<stop offset="0.54" stop-color="#808080" stop-opacity="0.12"/>
<stop offset="1" stop-color="#808080" stop-opacity="0.1"/>
</linearGradient>
</defs>
</svg>
